<svg xmlns="http://www.w3.org/2000/svg" fill="none" viewBox="0 0 24 24"><path stroke="#f7f7f7" stroke-linejoin="round" d="M13.5 4.5V12.5"></path><path stroke="#f7f7f7" stroke-linecap="round" stroke-linejoin="round" d="M9 18.5L12 20L15 18.5"></path><path stroke="#f7f7f7" stroke-linejoin="round" d="M8 5H6V12H8"></path><path stroke="#f7f7f7" stroke-linejoin="round" d="M6 8.5H8"></path><path stroke="#f7f7f7" stroke-linejoin="round" d="M9.5 12.5V9.5M9.5 9.5V5H10.5C11.0523 5 11.5 5.44772 11.5 6V8.5C11.5 9.05228 11.0523 9.5 10.5 9.5H9.5Z"></path><path stroke="#f7f7f7" stroke-linejoin="round" d="M18 7.5V5.5C18 5.22386 17.7761 5 17.5 5H16C15.7239 5 15.5 5.22386 15.5 5.5V11.5C15.5 11.7761 15.7239 12 16 12H17.5C17.7761 12 18 11.7761 18 11.5V9.5"></path><path stroke="#f7f7f7" stroke-linejoin="round" d="M5.5 15.5H17.5"></path><path stroke="#f7f7f7" stroke-linecap="round" stroke-linejoin="round" d="M3 18.5V2.5C3 1.94772 3.44772 1.5 4 1.5H20C20.5523 1.5 21 1.94772 21 2.5V18.5L12 22.5L3 18.5Z"></path></svg>