<svg xmlns="http://www.w3.org/2000/svg" fill="none" viewBox="0 0 24 24"><path stroke="#f7f7f7" stroke-linejoin="round" d="M2.93485 15.1699L8.99201 12.7471V18.8738L6.46781 19.7152C5.15767 20.1519 3.72049 19.975 2.55538 19.2335C0.978931 18.2304 1.19991 15.8639 2.93485 15.1699Z"></path><path stroke="#f7f7f7" stroke-linecap="round" stroke-linejoin="round" d="M5.91699 16.9072L8.99198 15.8105"></path><path stroke="#f7f7f7" stroke-linejoin="round" d="M21.0652 18.3804L12.6653 21.4668V15.3401L17.5322 13.8351C18.8423 13.3984 20.2795 13.5753 21.4446 14.3167C23.0211 15.3199 22.8001 17.6864 21.0652 18.3804Z"></path><path stroke="#f7f7f7" stroke-linecap="round" stroke-linejoin="round" d="M18.207 16.253L12.6651 18.4033"></path><path stroke="#f7f7f7" stroke-linejoin="round" d="M12.6655 21.4664L8.99194 20.2339V2.5332L15.158 4.4631C16.5112 4.9062 18.1349 6.06633 18.1349 9.14302C18.1349 12.2197 16.0765 12.1533 15.5565 12.1533C15.1405 12.1533 14.4298 11.7994 14.1265 11.6225V7.61218C14.1265 7.23603 13.8263 6.58991 13.3513 6.58991C12.9786 6.58991 12.6655 7.14734 12.6655 7.61218V21.4664Z"></path></svg>