<svg xmlns="http://www.w3.org/2000/svg" fill="none" viewBox="0 0 24 24"><circle cx="15.5" cy="9.25" r="1.5" stroke="#f7f7f7" stroke-linejoin="round"></circle><path stroke="#f7f7f7" stroke-linejoin="round" d="M8.25001 17.116C8.7283 17.3922 9.33989 17.2283 9.61604 16.75C9.89218 16.2717 9.7283 15.6601 9.25001 15.384L1.50275 11.7572C1.63175 6.07038 6.28215 1.5 12 1.5C17.799 1.5 22.5 6.20101 22.5 12C22.5 17.799 17.799 22.5 12 22.5C7.02873 22.5 2.86435 19.0452 1.77684 14.4055L8.25001 17.116Z"></path><path stroke="#f7f7f7" stroke-linejoin="round" d="M6.851 14.261C7.34464 13.7895 8.01351 13.5 8.75 13.5C8.83252 13.5 8.9142 13.5036 8.99487 13.5108L12.0076 9.48225C12.0026 9.40548 12 9.32804 12 9.25C12 7.317 13.567 5.75 15.5 5.75C17.433 5.75 19 7.317 19 9.25C19 11.0289 17.6728 12.4979 15.9546 12.7207L11.4895 16.0075C11.4964 16.0874 11.5 16.1683 11.5 16.25C11.5 17.7688 10.2688 19 8.75 19C7.23122 19 6 17.7688 6 16.25C6 16.2247 6.00034 16.1995 6.00102 16.1743"></path></svg>