<svg xmlns="http://www.w3.org/2000/svg" fill="none" viewBox="0 0 24 24"><path stroke="#f7f7f7" stroke-linejoin="round" d="M12 22.5002C14.7648 22.5002 17.28 21.4316 19.1551 19.685C18.0097 16.115 15.135 12.1724 12.0003 9.13086C8.86547 12.1724 5.9906 16.115 4.84503 19.6851C6.72016 21.4317 9.23531 22.5002 12 22.5002Z"></path><path stroke="#f7f7f7" stroke-linejoin="round" d="M1.5 12C1.5 14.2098 2.18262 16.2601 3.34851 17.9516C4.50535 13.3434 6.56077 9.56131 9.35022 6.82483C7.76775 5.60485 6.22266 4.69874 4.89852 4.26562C2.80939 6.18482 1.5 8.93949 1.5 12Z"></path><path stroke="#f7f7f7" stroke-linejoin="round" d="M20.6515 17.9513C21.8174 16.2597 22.5 14.2094 22.5 11.9996C22.5 8.93933 21.1908 6.18481 19.1018 4.26562C17.7777 4.69867 16.2325 5.60476 14.65 6.82475C17.4393 9.56121 19.4947 13.3432 20.6515 17.9513Z"></path><path stroke="#f7f7f7" stroke-linejoin="round" d="M12 1.5C10.3393 1.5 8.76867 1.88554 7.37268 2.57201C9.03897 3.04833 10.5861 3.7592 12 4.68582C13.414 3.7592 14.9611 3.04833 16.6274 2.57201C15.2314 1.88554 13.6608 1.5 12 1.5Z"></path></svg>